<?xml version="1.0" encoding="UTF-8" standalone="no"?>
<!-- Created with Inkscape (http://www.inkscape.org/) -->

<svg
   width="10.586319mm"
   height="7.5mm"
   viewBox="0 0 10.586319 7.5"
   version="1.1"
   id="svg5"
   xmlns="http://www.w3.org/2000/svg"
   xmlns:svg="http://www.w3.org/2000/svg">
  <defs
     id="defs2" />
  <g
     id="layer1"
     transform="translate(-83.268267,-96.558854)">
    <g
       transform="matrix(0.26458333,0,0,0.26458333,87.496248,-175.09589)"
       id="g31">
      <g
         id="g30754">
        <g
           id="g21510"
           transform="matrix(1.6674387,0,0,1.6674387,-15.979766,-694.73711)">
          <path
             d="m 11.982,1033.4 c -3.0712,0 -6.157,1.1 -8.5001,3.5 -3.3821,3.3 -4.2808,8.2 -2.7813,12.5 h 22.562 c 1.5,-4.3 0.601,-9.2 -2.781,-12.5 -2.343,-2.4 -5.429,-3.5 -8.5,-3.5 z"
             fill="#2c3e50"
             id="path9" />
          <path
             d="m 12,1032.4 c -3.0711,0 -6.1569,1.1 -8.5,3.5 -3.3821,3.3 -4.2808,8.2 -2.7812,12.5 h 22.562 c 1.5,-4.3 0.601,-9.2 -2.781,-12.5 -2.343,-2.4 -5.429,-3.5 -8.5,-3.5 z"
             fill="#34495e"
             id="path11" />
          <path
             d="m 13,11.864 a 1,0.86412 0 1 1 -2,0 1,0.86412 0 1 1 2,0 z"
             fill="#2c3e50"
             id="path13"
             transform="matrix(1.4142,1.4142,-1.6366,1.6366,14.446,1009)" />
          <path
             d="m 12,5.9419 7.481,12.957 H 4.519 Z"
             fill="#c0392b"
             id="path15"
             transform="matrix(0.094524,0.094524,-0.60031,0.60031,22.211,1031.9)" />
          <path
             d="m 19.759,1037.6 a 0.19843,1.2602 45 0 0 -0.044,0 0.19843,1.2602 45 0 0 -0.509,0.3 l -7.999,6.7 h 0.067 l -2.1217,2.1 c -0.3906,0.4 -0.3906,1.1 0,1.5 0.3905,0.4 1.0237,0.4 1.4137,0 l 2.122,-2.2 0.088,0.1 6.674,-8 a 0.19843,1.2602 45 0 0 0.331,-0.5 0.19843,1.2602 45 0 0 -0.022,0 z"
             fill="#2c3e50"
             style="color:#000000;text-indent:0;text-transform:none"
             id="path17" />
          <path
             d="m 19.778,1036.6 a 0.19843,1.2602 45 0 0 -0.044,0 0.19843,1.2602 45 0 0 -0.508,0.3 l -7.999,6.7 0.066,0.1 -2.1214,2.1 c -0.3906,0.4 -0.3906,1 0,1.4 0.3905,0.4 1.0234,0.4 1.4144,0 l 2.121,-2.1 0.088,0.1 6.674,-8 a 0.19843,1.2602 45 0 0 0.331,-0.6 0.19843,1.2602 45 0 0 -0.022,0 z"
             fill="#f1c40f"
             style="color:#000000;text-indent:0;text-transform:none"
             id="path19" />
          <path
             d="m 13,11.864 a 1,0.86412 0 1 1 -2,0 1,0.86412 0 1 1 2,0 z"
             fill="#f39c12"
             id="path21"
             transform="matrix(1.4142,1.4142,-1.6366,1.6366,14.446,1008)" />
          <path
             d="m 13,12 a 1,1 0 1 1 -2,0 1,1 0 1 1 2,0 z"
             fill="#2c3e50"
             id="path23"
             transform="matrix(0.70711,0.70711,-0.70711,0.70711,12,1027.4)" />
          <path
             d="m 12,1032.4 c -3.0711,0 -6.1569,1.1 -8.5,3.5 -2.5366,2.5 -3.6901,5.9 -3.4688,9.2 0.044563,-3 1.1842,-6 3.4688,-8.2 2.3431,-2.4 5.4289,-3.5 8.5,-3.5 3.071,0 6.157,1.1 8.5,3.5 2.285,2.2 3.424,5.2 3.469,8.2 0.221,-3.3 -0.932,-6.7 -3.469,-9.2 -2.343,-2.4 -5.429,-3.5 -8.5,-3.5 z"
             fill="#2c3e50"
             id="path25" />
          <path
             d="m 20.468,1044.4 c 0.01,0.1 0.031,0.3 0.031,0.5 0,0.1 -0.021,0.3 -0.031,0.5 h 2 c 0.011,-0.2 0.027,-0.3 0.031,-0.5 0,-0.2 -0.017,-0.4 -0.031,-0.5 z"
             id="path231"
             style="fill:#ff0000" />
          <path
             d="m 1.53,1044.4 c -0.0119,0.1 -0.0312,0.3 -0.0312,0.5 0,0.1 0.0186,0.3 0.0312,0.5 h 2 c -0.008,-0.2 -0.0312,-0.3 -0.0312,-0.5 -2e-4,0 0,0 0,0 0.0013,-0.2 0.0195,-0.4 0.0312,-0.5 z"
             id="path229"
             style="fill:#ff0000;fill-opacity:0.25" />
          <path
             d="m 20.811,1039.2 -1.75,1 c 0.191,0.3 0.347,0.6 0.5,0.9 l 1.75,-1 c -0.158,-0.3 -0.312,-0.6 -0.5,-0.9 z"
             id="path227"
             style="fill:#ff0000;fill-opacity:0.88" />
          <path
             d="m 3.187,1039.2 c -0.1776,0.3 -0.3144,0.6 -0.4687,0.9 l 1.7187,1 c 0.1536,-0.3 0.3092,-0.6 0.5,-0.9 z"
             id="path225"
             style="fill:#ff0000;fill-opacity:0.38" />
          <path
             d="m 16.781,1035.5 -1,1.8 c 0.3,0.1 0.595,0.3 0.875,0.5 l 1,-1.8 c -0.278,-0.1 -0.571,-0.3 -0.875,-0.5 z"
             id="path223"
             style="fill:#ff0000;fill-opacity:0.75" />
          <path
             d="m 7.2188,1035.5 c -0.3039,0.2 -0.5968,0.4 -0.875,0.5 l 1,1.8 c 0.2799,-0.2 0.5749,-0.4 0.875,-0.5 z"
             id="path221"
             style="fill:#ff0000;fill-opacity:0.5" />
          <path
             d="m 12,1034.4 h -0.5 v 2 h 0.5 0.5 v -2 z"
             id="path27"
             style="fill:#ff0000;fill-opacity:0.63" />
        </g>
      </g>
    </g>
  </g>
</svg>
