<?xml version="1.0" encoding="UTF-8" standalone="no"?>
<!-- Created with Inkscape (http://www.inkscape.org/) -->

<svg
   width="47.97118mm"
   height="7.5mm"
   viewBox="0 0 47.97118 7.5"
   version="1.1"
   id="svg5"
   xmlns="http://www.w3.org/2000/svg"
   xmlns:svg="http://www.w3.org/2000/svg">
  <defs
     id="defs2" />
  <g
     id="layer1"
     transform="translate(-83.268267,-96.558854)">
    <g
       transform="matrix(0.26458333,0,0,0.26458333,87.496248,-175.09589)"
       id="g31">
      <g
         id="g30754">
        <g
           id="g21510"
           transform="matrix(1.6674387,0,0,1.6674387,-15.979766,-694.73711)">
          <path
             d="m 11.982,1033.4 c -3.0712,0 -6.157,1.1 -8.5001,3.5 -3.3821,3.3 -4.2808,8.2 -2.7813,12.5 h 22.562 c 1.5,-4.3 0.601,-9.2 -2.781,-12.5 -2.343,-2.4 -5.429,-3.5 -8.5,-3.5 z"
             fill="#2c3e50"
             id="path9" />
          <path
             d="m 12,1032.4 c -3.0711,0 -6.1569,1.1 -8.5,3.5 -3.3821,3.3 -4.2808,8.2 -2.7812,12.5 h 22.562 c 1.5,-4.3 0.601,-9.2 -2.781,-12.5 -2.343,-2.4 -5.429,-3.5 -8.5,-3.5 z"
             fill="#34495e"
             id="path11" />
          <path
             d="m 13,11.864 a 1,0.86412 0 1 1 -2,0 1,0.86412 0 1 1 2,0 z"
             fill="#2c3e50"
             id="path13"
             transform="matrix(1.4142,1.4142,-1.6366,1.6366,14.446,1009)" />
          <path
             d="m 12,5.9419 7.481,12.957 H 4.519 Z"
             fill="#c0392b"
             id="path15"
             transform="matrix(0.094524,0.094524,-0.60031,0.60031,22.211,1031.9)" />
          <path
             d="m 19.759,1037.6 a 0.19843,1.2602 45 0 0 -0.044,0 0.19843,1.2602 45 0 0 -0.509,0.3 l -7.999,6.7 h 0.067 l -2.1217,2.1 c -0.3906,0.4 -0.3906,1.1 0,1.5 0.3905,0.4 1.0237,0.4 1.4137,0 l 2.122,-2.2 0.088,0.1 6.674,-8 a 0.19843,1.2602 45 0 0 0.331,-0.5 0.19843,1.2602 45 0 0 -0.022,0 z"
             fill="#2c3e50"
             style="color:#000000;text-indent:0;text-transform:none"
             id="path17" />
          <path
             d="m 19.778,1036.6 a 0.19843,1.2602 45 0 0 -0.044,0 0.19843,1.2602 45 0 0 -0.508,0.3 l -7.999,6.7 0.066,0.1 -2.1214,2.1 c -0.3906,0.4 -0.3906,1 0,1.4 0.3905,0.4 1.0234,0.4 1.4144,0 l 2.121,-2.1 0.088,0.1 6.674,-8 a 0.19843,1.2602 45 0 0 0.331,-0.6 0.19843,1.2602 45 0 0 -0.022,0 z"
             fill="#f1c40f"
             style="color:#000000;text-indent:0;text-transform:none"
             id="path19" />
          <path
             d="m 13,11.864 a 1,0.86412 0 1 1 -2,0 1,0.86412 0 1 1 2,0 z"
             fill="#f39c12"
             id="path21"
             transform="matrix(1.4142,1.4142,-1.6366,1.6366,14.446,1008)" />
          <path
             d="m 13,12 a 1,1 0 1 1 -2,0 1,1 0 1 1 2,0 z"
             fill="#2c3e50"
             id="path23"
             transform="matrix(0.70711,0.70711,-0.70711,0.70711,12,1027.4)" />
          <path
             d="m 12,1032.4 c -3.0711,0 -6.1569,1.1 -8.5,3.5 -2.5366,2.5 -3.6901,5.9 -3.4688,9.2 0.044563,-3 1.1842,-6 3.4688,-8.2 2.3431,-2.4 5.4289,-3.5 8.5,-3.5 3.071,0 6.157,1.1 8.5,3.5 2.285,2.2 3.424,5.2 3.469,8.2 0.221,-3.3 -0.932,-6.7 -3.469,-9.2 -2.343,-2.4 -5.429,-3.5 -8.5,-3.5 z"
             fill="#2c3e50"
             id="path25" />
          <path
             d="m 20.468,1044.4 c 0.01,0.1 0.031,0.3 0.031,0.5 0,0.1 -0.021,0.3 -0.031,0.5 h 2 c 0.011,-0.2 0.027,-0.3 0.031,-0.5 0,-0.2 -0.017,-0.4 -0.031,-0.5 z"
             id="path231"
             style="fill:#ff0000" />
          <path
             d="m 1.53,1044.4 c -0.0119,0.1 -0.0312,0.3 -0.0312,0.5 0,0.1 0.0186,0.3 0.0312,0.5 h 2 c -0.008,-0.2 -0.0312,-0.3 -0.0312,-0.5 -2e-4,0 0,0 0,0 0.0013,-0.2 0.0195,-0.4 0.0312,-0.5 z"
             id="path229"
             style="fill:#ff0000;fill-opacity:0.25" />
          <path
             d="m 20.811,1039.2 -1.75,1 c 0.191,0.3 0.347,0.6 0.5,0.9 l 1.75,-1 c -0.158,-0.3 -0.312,-0.6 -0.5,-0.9 z"
             id="path227"
             style="fill:#ff0000;fill-opacity:0.88" />
          <path
             d="m 3.187,1039.2 c -0.1776,0.3 -0.3144,0.6 -0.4687,0.9 l 1.7187,1 c 0.1536,-0.3 0.3092,-0.6 0.5,-0.9 z"
             id="path225"
             style="fill:#ff0000;fill-opacity:0.38" />
          <path
             d="m 16.781,1035.5 -1,1.8 c 0.3,0.1 0.595,0.3 0.875,0.5 l 1,-1.8 c -0.278,-0.1 -0.571,-0.3 -0.875,-0.5 z"
             id="path223"
             style="fill:#ff0000;fill-opacity:0.75" />
          <path
             d="m 7.2188,1035.5 c -0.3039,0.2 -0.5968,0.4 -0.875,0.5 l 1,1.8 c 0.2799,-0.2 0.5749,-0.4 0.875,-0.5 z"
             id="path221"
             style="fill:#ff0000;fill-opacity:0.5" />
          <path
             d="m 12,1034.4 h -0.5 v 2 h 0.5 0.5 v -2 z"
             id="path27"
             style="fill:#ff0000;fill-opacity:0.63" />
        </g>
        <g
           aria-label="STEGBENCH"
           id="text3268"
           style="font-size:27.3515px;line-height:1.25;stroke-width:0.683787">
          <path
             d="m 30.267253,1044.7395 5.195182,-0.9349 q 0.654406,2.2036 3.365516,2.2036 2.110126,0 2.110126,-1.1218 0,-0.5877 -0.494143,-0.9082 -0.480788,-0.3339 -1.73618,-0.5876 -4.794525,-0.9215 -6.156758,-2.404 -1.362233,-1.4824 -1.362233,-3.4857 0,-2.5775 1.949863,-4.287 1.963218,-1.7095 5.635905,-1.7095 5.569128,0 7.358728,4.474 l -4.634263,1.4023 q -0.721182,-1.8296 -2.924794,-1.8296 -1.829666,0 -1.829666,1.1352 0,0.5075 0.414012,0.7879 0.414012,0.2805 1.602627,0.5342 3.27203,0.6945 4.647618,1.2287 1.375589,0.5342 2.297099,1.8297 0.921511,1.2821 0.921511,3.0316 0,2.7645 -2.243678,4.4874 -2.243678,1.7094 -5.889654,1.7094 -6.664257,0 -8.226818,-5.5557 z"
             style="font-family:'Franklin Gothic Heavy';-inkscape-font-specification:'Franklin Gothic Heavy, '"
             id="path30782" />
          <path
             d="m 56.470203,1036.152 v 13.8628 h -5.302024 v -13.8628 h -3.779528 v -4.3671 h 12.861081 v 4.3671 z"
             style="font-family:'Franklin Gothic Heavy';-inkscape-font-specification:'Franklin Gothic Heavy, '"
             id="path30784" />
          <path
             d="m 75.554818,1045.661 v 4.3538 H 61.839003 v -18.2299 h 13.715815 v 4.2069 H 67.328 v 2.6443 h 6.650902 v 4.0467 H 67.328 v 2.9782 z"
             style="font-family:'Franklin Gothic Heavy';-inkscape-font-specification:'Franklin Gothic Heavy, '"
             id="path30786" />
          <path
             d="m 93.517597,1039.798 v 10.2168 h -2.737821 q -0.33388,-1.1352 -0.734537,-1.9098 -1.696113,2.1902 -5.021564,2.1902 -3.52578,0 -5.796168,-2.4573 -2.270388,-2.4707 -2.270388,-6.6776 0,-4.0867 2.190257,-6.8646 2.203612,-2.7913 6.54406,-2.7913 3.258675,0 5.248603,1.6561 1.989928,1.656 2.577558,4.701 l -5.422221,0.5342 q -0.400656,-2.8446 -2.497427,-2.8446 -2.751176,0 -2.751176,5.2352 0,3.1652 0.881445,4.1802 0.881445,1.0016 2.136836,1.0016 1.014997,0 1.722824,-0.6143 0.721182,-0.6143 0.734537,-1.6828 h -3.018281 v -3.873 z"
             style="font-family:'Franklin Gothic Heavy';-inkscape-font-specification:'Franklin Gothic Heavy, '"
             id="path30788" />
          <path
             d="m 96.629366,1031.7849 h 5.515704 q 2.08342,0 3.16519,0.3339 1.08177,0.3339 1.82967,1.4958 0.74789,1.1485 0.74789,2.8046 0,3.0316 -2.71111,3.9932 3.27203,1.0283 3.27203,4.5808 0,2.0166 -1.29546,3.5258 -1.2821,1.4958 -4.92808,1.4958 h -5.595834 z m 2.951504,7.559 h 1.9098 q 2.01664,0 2.65769,-0.7345 0.64105,-0.7479 0.64105,-1.9231 0,-1.3756 -0.73454,-1.9633 -0.73454,-0.6009 -2.27039,-0.6009 h -2.20361 z m 0,8.2536 h 2.43065 q 3.33881,0 3.33881,-2.9515 0,-1.1486 -0.70783,-2.0567 -0.70783,-0.9082 -2.88473,-0.9082 h -2.1769 z"
             style="font-family:'Franklin Gothic Medium Cond';-inkscape-font-specification:'Franklin Gothic Medium Cond'"
             id="path30790" />
          <path
             d="m 111.53379,1031.7849 h 10.44379 v 2.4173 h -7.42551 v 5.2085 h 5.82288 v 2.4307 h -5.82288 v 5.7027 h 7.5457 v 2.4707 h -10.56398 z"
             style="font-family:'Franklin Gothic Medium Cond';-inkscape-font-specification:'Franklin Gothic Medium Cond'"
             id="path30792" />
          <path
             d="m 124.02093,1031.7849 h 3.55249 l 5.99649,13.1415 v -13.1415 h 2.52414 v 18.2299 h -2.81795 l -6.73104,-14.5973 v 14.5973 h -2.52413 z"
             style="font-family:'Franklin Gothic Medium Cond';-inkscape-font-specification:'Franklin Gothic Medium Cond'"
             id="path30794" />
          <path
             d="m 148.64796,1043.8847 2.77789,0.3873 q -0.85474,6.0767 -5.96979,6.0767 -3.32545,0 -4.95479,-2.5509 -1.62933,-2.5508 -1.62933,-6.8245 0,-4.6076 1.72282,-7.0649 1.72282,-2.4574 4.96814,-2.4574 5.02157,0 5.88966,6.2235 l -2.8046,0.4141 q -0.45408,-4.1402 -3.0717,-4.1402 -3.49907,0 -3.49907,7.1985 0,6.7043 3.49907,6.7043 1.4023,0 2.08341,-1.015 0.69448,-1.0283 0.98829,-2.9515 z"
             style="font-family:'Franklin Gothic Medium Cond';-inkscape-font-specification:'Franklin Gothic Medium Cond'"
             id="path30796" />
          <path
             d="m 153.92327,1031.7849 h 3.01828 v 7.559 h 5.3688 v -7.559 h 3.01828 v 18.2299 h -3.01828 v -8.12 h -5.3688 v 8.12 h -3.01828 z"
             style="font-family:'Franklin Gothic Medium Cond';-inkscape-font-specification:'Franklin Gothic Medium Cond'"
             id="path30798" />
        </g>
      </g>
    </g>
  </g>
</svg>
