<?xml version="1.0" standalone="no"?>
<!DOCTYPE svg PUBLIC "-//W3C//DTD SVG 20010904//EN"
 "http://www.w3.org/TR/2001/REC-SVG-20010904/DTD/svg10.dtd">
<svg version="1.0" xmlns="http://www.w3.org/2000/svg"
 width="1280.000000pt" height="1280.000000pt" viewBox="0 0 1280.000000 1280.000000"
 preserveAspectRatio="xMidYMid meet">
<metadata>
Created by potrace 1.14, written by Peter Selinger 2001-2017
</metadata>
<g transform="translate(0.000000,1280.000000) scale(0.100000,-0.100000)"
fill="#000000" stroke="none">
<path d="M6050 10923 c-122 -7 -502 -44 -600 -59 -1206 -177 -2283 -658 -3175
-1419 -273 -233 -672 -642 -885 -905 -414 -514 -752 -1103 -977 -1705 -211
-564 -334 -1113 -389 -1735 -21 -242 -30 -1116 -14 -1385 36 -615 135 -1151
317 -1712 l46 -143 6018 0 6018 0 50 154 c155 479 260 1000 301 1506 11 128
24 488 37 978 8 354 -22 750 -88 1142 -191 1134 -663 2156 -1395 3019 -151
177 -651 674 -824 818 -600 498 -1238 858 -1955 1103 -703 239 -1407 353
-2160 348 -148 -1 -295 -3 -325 -5z m4516 -2248 c10 -25 -3 -56 -56 -137 -28
-42 -380 -472 -783 -955 -403 -483 -1086 -1302 -1519 -1820 l-785 -942 14 -53
c20 -78 28 -277 14 -381 -13 -94 -57 -240 -98 -322 -145 -290 -423 -504 -738
-570 -100 -21 -332 -21 -425 -1 l-65 14 -215 -212 c-277 -273 -340 -331 -399
-360 -181 -92 -412 -69 -565 56 -169 138 -238 334 -191 537 31 129 58 164 348
456 l269 270 -12 65 c-95 526 181 1023 671 1207 147 55 219 66 408 60 113 -3
182 -9 215 -20 l50 -16 360 302 c199 165 665 556 1036 867 371 311 895 750
1164 975 269 226 609 510 755 633 278 233 357 294 436 337 54 28 103 33 111
10z"/>
<path d="M6266 5065 c-199 -55 -349 -213 -391 -413 -18 -85 -18 -129 0 -217
20 -96 66 -184 132 -256 276 -298 773 -193 904 192 99 293 -76 615 -378 694
-70 18 -200 18 -267 0z"/>
</g>
</svg>
